# xmcd
#
# Track frame offsets:
#	150
#	14890
#	26717
#	38282
#	52042
#	65107
#	79287
#	94480
#	108047
#	121670
#	132190
#	140287
#	155282
#	168712
#
# Disc length: 2466 seconds
#
# Revision: 0
# Processed by: cddbd v1.4PL0 Copyright (c) Steve Scherf et al.
# Submitted via: audiograbber 1.80.04
#
DISCID=bc09a00e
DTITLE=Sieker Band - Bluegrass State Of Mind
DYEAR=1992
DGENRE=Bluegrass
TTITLE0=Travelling Fever
TTITLE1=Golden Memories Of Fall
TTITLE2=Hot Road Banjo
TTITLE3=Love Has Many Different Colors
TTITLE4=Horizon
TTITLE5=Sixteen Roses In A Bowl
TTITLE6=I've Such A Hard Time
TTITLE7=Love Untrue
TTITLE8=Cheksea
TTITLE9=Sweetest Day In Life
TTITLE10=Bluegrass State Of Mind
TTITLE11=Half - Seas - Over
TTITLE12=I'd Like To Be A Cloud
TTITLE13=Railroad Blues
EXTD=
EXTT0=
EXTT1=
EXTT2=
EXTT3=
EXTT4=
EXTT5=
EXTT6=
EXTT7=
EXTT8=
EXTT9=
EXTT10=
EXTT11=
EXTT12=
EXTT13=
PLAYORDER=
